<?xml version="1.0" encoding="UTF-8" standalone="no"?>
<!-- Created with Inkscape (http://www.inkscape.org/) -->

<svg
   xmlns:dc="http://purl.org/dc/elements/1.1/"
   xmlns:cc="http://creativecommons.org/ns#"
   xmlns:rdf="http://www.w3.org/1999/02/22-rdf-syntax-ns#"
   xmlns:svg="http://www.w3.org/2000/svg"
   xmlns="http://www.w3.org/2000/svg"
   xmlns:sodipodi="http://sodipodi.sourceforge.net/DTD/sodipodi-0.dtd"
   xmlns:inkscape="http://www.inkscape.org/namespaces/inkscape"
   width="750"
   height="750"
   id="svg2"
   version="1.1"
   inkscape:version="0.48.4 r9939"
   sodipodi:docname="logo.svg">
  <defs
     id="defs4" />
  <sodipodi:namedview
     id="base"
     pagecolor="#ffffff"
     bordercolor="#666666"
     borderopacity="1.0"
     inkscape:pageopacity="0.0"
     inkscape:pageshadow="2"
     inkscape:zoom="0.35"
     inkscape:cx="-197.14286"
     inkscape:cy="520"
     inkscape:document-units="px"
     inkscape:current-layer="layer1"
     showgrid="false"
     inkscape:window-width="1920"
     inkscape:window-height="1017"
     inkscape:window-x="-8"
     inkscape:window-y="-8"
     inkscape:window-maximized="1" />
  <metadata
     id="metadata7">
    <rdf:RDF>
      <cc:Work
         rdf:about="">
        <dc:format>image/svg+xml</dc:format>
        <dc:type
           rdf:resource="http://purl.org/dc/dcmitype/StillImage" />
        <dc:title />
      </cc:Work>
    </rdf:RDF>
  </metadata>
  <g
     inkscape:label="Ebene 1"
     inkscape:groupmode="layer"
     id="layer1"
     transform="translate(0,-302.36218)">
    <g
       transform="matrix(1.1047454,0.03322086,0.12858947,1.0424059,67.925889,231.71424)"
       id="g3987">
      <path
         style="fill:#f4e3d7;stroke:none"
         d="M 403.77842,24.07062 223.13701,166.43974 362.48896,254.93946 548.29156,108.72253 z"
         id="path3989"
         inkscape:connector-curvature="0" />
      <g
         id="g3991">
        <path
           inkscape:connector-curvature="0"
           id="path3993"
           d="m 440,115.21933 c 3.80952,0 11.42857,-3.80953 11.42857,0 0,3.80952 -14.12231,-2.69374 -11.42857,0 3.43386,3.43385 9.77684,1.05359 14.28571,2.85714 1.76853,0.70741 -1.34687,4.36741 0,5.71428 0.95405,0.95405 4.76025,-0.95404 5.71429,0 0.67344,0.67344 -0.67344,2.18371 0,2.85715 0.67344,0.67343 2.18371,-0.67344 2.85714,0 0.67344,0.67343 -0.67343,2.1837 0,2.85714 0.67344,0.67343 2.18371,-0.67344 2.85715,0 1.42857,1.42857 -1.42858,7.14286 0,8.57143 0.67343,0.67343 2.85714,-0.95238 2.85714,0 0,0.95238 -1.90476,0 -2.85714,0"
           style="fill:none;stroke:#000000;stroke-width:1px;stroke-linecap:butt;stroke-linejoin:miter;stroke-opacity:1" />
        <g
           id="g3995">
          <path
             style="fill:none;stroke:#000000;stroke-width:1px;stroke-linecap:butt;stroke-linejoin:miter;stroke-opacity:1"
             d="m 405.71429,55.219325 c 3.80952,0 11.42857,-3.809523 11.42857,0 0,3.809524 -12.63325,-3.614031 -11.42857,0 1.7561,5.268312 9.94932,5.102318 14.28571,8.571429 0.74368,0.594948 -0.67344,2.183708 0,2.857143 0.96349,0.96349 4.7508,-0.96349 5.71429,0 3.80952,3.809524 -4.76191,2.857143 2.85714,2.857143 2.0314,0 8.57143,-1.200132 8.57143,2.857143 0,0.952381 -2.18371,-0.673435 -2.85715,0 -1.34687,1.34687 1.34687,4.367415 0,5.714285 -0.67343,0.673435 -2.1837,-0.673435 -2.85714,0 -0.67343,0.673435 0,1.904762 0,2.857143 0,0.952381 -0.67343,2.183708 0,2.857143 1.42857,1.428571 7.14286,-1.428571 8.57143,0 0.67344,0.673435 -0.67344,2.183708 0,2.857143 0.67344,0.673435 1.95363,-0.301169 2.85714,0 20.69548,6.898492 -4.50459,-0.823725 8.57143,5.714286 1.13284,0.566417 7.98733,-0.584104 8.57143,0 0.67344,0.673435 -0.67344,2.183707 0,2.857142 0.95404,0.954045 4.76024,-0.954044 5.71429,0 0.94771,0.947711 -0.94771,4.766576 0,5.714285 1.34687,1.34687 5.71428,-1.904761 5.71428,0 0,4.04762 -13.33333,-8.095237 2.85714,0 0.85184,0.42592 -0.67343,2.18371 0,2.85714 1.34687,1.34687 5.71429,-1.90476 5.71429,0 0,0.95238 -3.80952,0 -2.85714,0 2.85714,0 5.71428,0 8.57143,0 0.95238,0 2.1837,-0.67343 2.85714,0 0.67343,0.67344 -0.67344,2.18371 0,2.85715 0.67343,0.67343 2.85714,-0.95238 2.85714,0 0,0.95238 -2.85714,-0.95238 -2.85714,0 0,4.05727 6.54003,2.85714 8.57143,2.85714"
             id="path3997"
             inkscape:connector-curvature="0" />
          <g
             id="g3999">
            <path
               inkscape:connector-curvature="0"
               id="path4001"
               d="m 288.57143,132.36218 c 9.78402,-2.98461 8.8313,8.70137 14.28571,11.42857 0.85184,0.42592 2.18371,-0.67343 2.85715,0 0.67343,0.67344 -0.67344,2.18371 0,2.85715 0.67343,0.67343 2.1837,-0.67344 2.85714,0 0.67343,0.67343 -0.67344,2.1837 0,2.85714 1.34687,1.34687 4.01061,-0.85184 5.71428,0 1.20468,0.60234 1.65247,2.2548 2.85715,2.85714 1.70367,0.85184 5.71428,-1.90476 5.71428,0 0,0.95238 -2.85714,-0.95238 -2.85714,0 0,5.94537 4.00677,1.14963 5.71429,2.85715 0.67343,0.67343 -0.67344,2.1837 0,2.85714 0.67343,0.67343 2.1837,-0.67344 2.85714,0 0.67343,0.67343 -0.67344,2.18371 0,2.85714 0.68752,0.68752 10.74105,-0.68752 11.42857,0 0.67344,0.67344 -0.67344,2.18371 0,2.85714 0.67344,0.67344 1.90476,0 2.85714,0 0.95238,0 1.90476,0 2.85715,0 0.95238,0 1.90476,0 2.85714,0 0.95238,0 2.18371,-0.67343 2.85714,0 0.68752,0.68752 -0.68752,10.74106 0,11.42858 1.42857,1.42857 7.14286,-1.42858 8.57143,0 0.67344,0.67343 -0.67344,2.1837 0,2.85714 0.0919,0.0919 7.8785,0 8.57143,0 0.95238,0 1.90476,0 2.85714,0 0.95238,0 2.18371,-0.67344 2.85714,0 1.34687,1.34687 -1.34687,4.36741 0,5.71428 0.67344,0.67344 2.18371,-0.67343 2.85715,0 0.67343,0.67344 -0.67344,2.18371 0,2.85715 0.67343,0.67343 2.1837,-0.67344 2.85714,0 0.67344,0.67343 0,1.90476 0,2.85714 0.95238,0 2.18371,-0.67344 2.85714,0 0.67344,0.67343 -0.67343,2.18371 0,2.85714 0.67344,0.67344 2.18371,-0.67343 2.85715,0 1.34687,1.34687 -1.34687,4.36742 0,5.71429 0.67343,0.67343 2.1837,-0.67344 2.85714,0 0.67343,0.67343 -0.67344,2.18371 0,2.85714 1.34687,1.34687 4.36741,-1.34687 5.71428,0 0.95782,0.95782 -0.95782,4.75647 0,5.71429 0.67344,0.67343 2.18371,-0.67344 2.85715,0 0.67343,0.67343 0.95238,2.85714 0,2.85714 -0.95238,0 0,-1.90476 0,-2.85714"
               style="fill:none;stroke:#000000;stroke-width:1px;stroke-linecap:butt;stroke-linejoin:miter;stroke-opacity:1" />
            <g
               id="g4003">
              <g
                 id="g4005">
                <path
                   inkscape:connector-curvature="0"
                   id="path4007"
                   d="m 377.14286,80.933611 c 4.7619,0 9.52381,0 14.28571,0 0.95238,0 2.85714,-0.952381 2.85714,0 0,0.952381 -2.1837,-0.673435 -2.85714,0 -0.67343,0.673435 -0.67343,2.183708 0,2.857143 1.42857,1.428571 7.14286,-1.428571 8.57143,0 0.67344,0.673435 0,1.904762 0,2.857143 0,0.952381 0.67344,2.183708 0,2.857143 -0.67344,0.673435 -2.18371,-0.673435 -2.85714,0 -0.67344,0.673435 0,1.904762 0,2.857143 0,0.952381 -0.67344,2.183707 0,2.857142 0.67343,0.673436 2.1837,-0.673435 2.85714,0 0.67344,0.673436 -0.67344,2.183708 0,2.857143 1.42857,1.428572 7.14286,-1.428571 8.57143,0 3.80952,3.809522 -4.76191,2.857142 2.85714,2.857142"
                   style="fill:none;stroke:#000000;stroke-width:1px;stroke-linecap:butt;stroke-linejoin:miter;stroke-opacity:1" />
                <path
                   inkscape:connector-curvature="0"
                   id="path4009"
                   d="m 354.28571,98.076468 c 2.751,8.518352 10.02654,-2.129588 14.28572,0 1.20468,0.602339 1.65246,2.254802 2.85714,2.857142 2.28572,1.14286 6.28572,-1.142856 8.57143,0 1.20468,0.60234 1.65247,2.25481 2.85714,2.85714 0.85184,0.42592 3.80953,0 2.85715,0 -1.90477,0 -3.80953,0 -5.71429,0 -0.95238,0 -2.18371,-0.67343 -2.85714,0 -0.67344,0.67344 0.67343,2.18371 0,2.85715 -0.67344,0.67343 -2.18371,-0.67344 -2.85715,0 -0.67343,0.67343 0,1.90476 0,2.85714 0,0.95238 -0.67343,2.18371 0,2.85714 0.67344,0.67344 2.18371,-0.67343 2.85715,0 0.67343,0.67344 -0.67344,2.18371 0,2.85715 0.96349,0.96349 4.75079,-0.96349 5.71428,0 0.67344,0.67343 -0.67343,2.1837 0,2.85714 0.67344,0.67343 2.18371,-0.67344 2.85715,0 1.34687,1.34687 -0.85184,4.01061 0,5.71428 5.94537,11.89075 -0.19725,-3.05438 5.71428,2.85715 0.67344,0.67343 -0.67343,2.1837 0,2.85714 0.67344,0.67343 2.18371,-0.67344 2.85714,0 0.67344,0.67343 -0.67343,2.18371 0,2.85714 3.80953,3.80953 2.85715,-4.7619 2.85715,2.85715"
                   style="fill:none;stroke:#000000;stroke-width:1px;stroke-linecap:butt;stroke-linejoin:miter;stroke-opacity:1" />
                <path
                   inkscape:connector-curvature="0"
                   id="path4011"
                   d="m 417.14286,149.50504 c 12.2804,6.1402 7.16939,5.71429 14.28571,5.71429 0.95238,0 2.18371,-0.67344 2.85714,0 0.67344,0.67343 -0.67343,2.1837 0,2.85714 0.96349,0.96349 4.7508,-0.96349 5.71429,0 0.67344,0.67343 -0.67344,2.18371 0,2.85714 0.0919,0.0919 7.8785,0 8.57143,0"
                   style="fill:none;stroke:#000000;stroke-width:1px;stroke-linecap:butt;stroke-linejoin:miter;stroke-opacity:1" />
                <path
                   inkscape:connector-curvature="0"
                   id="path4013"
                   d="m 322.85714,112.36218 c -3.32628,22.35867 10.65916,2.08773 14.28572,5.71429 0.67343,0.67343 0.88426,3.21085 0,2.85714 -5.1561,-2.06244 -14.28572,-14.12471 -14.28572,-8.57143 0,12.02352 10.5347,11.42857 17.14286,11.42857 0.95238,0 2.18371,-0.67343 2.85714,0 0.67344,0.67344 -0.67343,2.18371 0,2.85715 1.34687,1.34687 4.36742,-1.34687 5.71429,0 0.67343,0.67343 -0.67344,2.1837 0,2.85714 0.68752,0.68752 10.74105,-0.68752 11.42857,0 0.67344,0.67343 0,1.90476 0,2.85714 0.95238,0 2.18371,-0.67343 2.85714,0 0.67344,0.67344 -0.67343,2.18371 0,2.85715 1.42857,1.42857 7.14286,-1.42858 8.57143,0 0.28572,0.28571 0.28572,8.28571 0,8.57142 -0.67343,0.67344 -2.18371,-0.67343 -2.85714,0 -0.67344,0.67344 0.67343,2.18371 0,2.85715 -0.67344,0.67343 -2.18371,-0.67344 -2.85714,0 -0.67344,0.67343 0.67343,2.1837 0,2.85714 -0.67344,0.67343 -1.90477,0 -2.85715,0"
                   style="fill:none;stroke:#000000;stroke-width:1px;stroke-linecap:butt;stroke-linejoin:miter;stroke-opacity:1" />
                <path
                   inkscape:connector-curvature="0"
                   id="path4015"
                   d="M 402.85714,175.21933 385.71429,152.36218"
                   style="fill:none;stroke:#000000;stroke-width:1px;stroke-linecap:butt;stroke-linejoin:miter;stroke-opacity:1" />
              </g>
              <path
                 style="fill:none;stroke:#000000;stroke-width:1px;stroke-linecap:butt;stroke-linejoin:miter;stroke-opacity:1"
                 d="m 305.71429,189.50504 c -3.80953,0 -11.42858,3.80952 -11.42858,0 0,-3.80952 8.32864,-2.21424 11.42858,0 35.40298,-7.59689 4.05388,12.62532 8.57142,17.14286 0.96349,0.96349 4.7508,-0.96349 5.71429,0 0.67344,0.67343 -0.67344,2.1837 0,2.85714 0.67344,0.67343 2.18371,-0.67344 2.85714,0 0.67344,0.67343 -0.67343,2.18371 0,2.85714 0.28572,0.28572 8.28572,0.28572 8.57143,0 0.68406,-0.68406 -0.6495,-11.42857 0,-11.42857 0.95238,0 0.95238,2.85714 0,2.85714 -1.34687,0 -1.65246,-2.2548 -2.85714,-2.85714 -0.85184,-0.42592 -1.90476,0 -2.85714,0 -7.61905,0 0.95238,0.95238 -2.85715,-2.85714 -0.67343,-0.67344 -2.0053,0.42592 -2.85714,0 -4.96701,-2.48351 -9.52381,-5.71429 -14.28571,-8.57143 z"
                 id="path4017"
                 inkscape:connector-curvature="0" />
            </g>
          </g>
        </g>
      </g>
    </g>
    <g
       id="g3955"
       transform="matrix(0.9426675,-0.57701295,0.67829124,0.80191417,-373.75838,580.17727)">
      <path
         inkscape:connector-curvature="0"
         id="path3957"
         d="M 403.77842,24.07062 223.13701,166.43974 362.48896,254.93946 548.29156,108.72253 z"
         style="fill:#f4e3d7;stroke:none" />
      <g
         id="g3959">
        <path
           style="fill:none;stroke:#000000;stroke-width:1px;stroke-linecap:butt;stroke-linejoin:miter;stroke-opacity:1"
           d="m 440,115.21933 c 3.80952,0 11.42857,-3.80953 11.42857,0 0,3.80952 -14.12231,-2.69374 -11.42857,0 3.43386,3.43385 9.77684,1.05359 14.28571,2.85714 1.76853,0.70741 -1.34687,4.36741 0,5.71428 0.95405,0.95405 4.76025,-0.95404 5.71429,0 0.67344,0.67344 -0.67344,2.18371 0,2.85715 0.67344,0.67343 2.18371,-0.67344 2.85714,0 0.67344,0.67343 -0.67343,2.1837 0,2.85714 0.67344,0.67343 2.18371,-0.67344 2.85715,0 1.42857,1.42857 -1.42858,7.14286 0,8.57143 0.67343,0.67343 2.85714,-0.95238 2.85714,0 0,0.95238 -1.90476,0 -2.85714,0"
           id="path3961"
           inkscape:connector-curvature="0" />
        <g
           id="g3963">
          <path
             inkscape:connector-curvature="0"
             id="path3965"
             d="m 405.71429,55.219325 c 3.80952,0 11.42857,-3.809523 11.42857,0 0,3.809524 -12.63325,-3.614031 -11.42857,0 1.7561,5.268312 9.94932,5.102318 14.28571,8.571429 0.74368,0.594948 -0.67344,2.183708 0,2.857143 0.96349,0.96349 4.7508,-0.96349 5.71429,0 3.80952,3.809524 -4.76191,2.857143 2.85714,2.857143 2.0314,0 8.57143,-1.200132 8.57143,2.857143 0,0.952381 -2.18371,-0.673435 -2.85715,0 -1.34687,1.34687 1.34687,4.367415 0,5.714285 -0.67343,0.673435 -2.1837,-0.673435 -2.85714,0 -0.67343,0.673435 0,1.904762 0,2.857143 0,0.952381 -0.67343,2.183708 0,2.857143 1.42857,1.428571 7.14286,-1.428571 8.57143,0 0.67344,0.673435 -0.67344,2.183708 0,2.857143 0.67344,0.673435 1.95363,-0.301169 2.85714,0 20.69548,6.898492 -4.50459,-0.823725 8.57143,5.714286 1.13284,0.566417 7.98733,-0.584104 8.57143,0 0.67344,0.673435 -0.67344,2.183707 0,2.857142 0.95404,0.954045 4.76024,-0.954044 5.71429,0 0.94771,0.947711 -0.94771,4.766576 0,5.714285 1.34687,1.34687 5.71428,-1.904761 5.71428,0 0,4.04762 -13.33333,-8.095237 2.85714,0 0.85184,0.42592 -0.67343,2.18371 0,2.85714 1.34687,1.34687 5.71429,-1.90476 5.71429,0 0,0.95238 -3.80952,0 -2.85714,0 2.85714,0 5.71428,0 8.57143,0 0.95238,0 2.1837,-0.67343 2.85714,0 0.67343,0.67344 -0.67344,2.18371 0,2.85715 0.67343,0.67343 2.85714,-0.95238 2.85714,0 0,0.95238 -2.85714,-0.95238 -2.85714,0 0,4.05727 6.54003,2.85714 8.57143,2.85714"
             style="fill:none;stroke:#000000;stroke-width:1px;stroke-linecap:butt;stroke-linejoin:miter;stroke-opacity:1" />
          <g
             id="g3967">
            <path
               style="fill:none;stroke:#000000;stroke-width:1px;stroke-linecap:butt;stroke-linejoin:miter;stroke-opacity:1"
               d="m 288.57143,132.36218 c 9.78402,-2.98461 8.8313,8.70137 14.28571,11.42857 0.85184,0.42592 2.18371,-0.67343 2.85715,0 0.67343,0.67344 -0.67344,2.18371 0,2.85715 0.67343,0.67343 2.1837,-0.67344 2.85714,0 0.67343,0.67343 -0.67344,2.1837 0,2.85714 1.34687,1.34687 4.01061,-0.85184 5.71428,0 1.20468,0.60234 1.65247,2.2548 2.85715,2.85714 1.70367,0.85184 5.71428,-1.90476 5.71428,0 0,0.95238 -2.85714,-0.95238 -2.85714,0 0,5.94537 4.00677,1.14963 5.71429,2.85715 0.67343,0.67343 -0.67344,2.1837 0,2.85714 0.67343,0.67343 2.1837,-0.67344 2.85714,0 0.67343,0.67343 -0.67344,2.18371 0,2.85714 0.68752,0.68752 10.74105,-0.68752 11.42857,0 0.67344,0.67344 -0.67344,2.18371 0,2.85714 0.67344,0.67344 1.90476,0 2.85714,0 0.95238,0 1.90476,0 2.85715,0 0.95238,0 1.90476,0 2.85714,0 0.95238,0 2.18371,-0.67343 2.85714,0 0.68752,0.68752 -0.68752,10.74106 0,11.42858 1.42857,1.42857 7.14286,-1.42858 8.57143,0 0.67344,0.67343 -0.67344,2.1837 0,2.85714 0.0919,0.0919 7.8785,0 8.57143,0 0.95238,0 1.90476,0 2.85714,0 0.95238,0 2.18371,-0.67344 2.85714,0 1.34687,1.34687 -1.34687,4.36741 0,5.71428 0.67344,0.67344 2.18371,-0.67343 2.85715,0 0.67343,0.67344 -0.67344,2.18371 0,2.85715 0.67343,0.67343 2.1837,-0.67344 2.85714,0 0.67344,0.67343 0,1.90476 0,2.85714 0.95238,0 2.18371,-0.67344 2.85714,0 0.67344,0.67343 -0.67343,2.18371 0,2.85714 0.67344,0.67344 2.18371,-0.67343 2.85715,0 1.34687,1.34687 -1.34687,4.36742 0,5.71429 0.67343,0.67343 2.1837,-0.67344 2.85714,0 0.67343,0.67343 -0.67344,2.18371 0,2.85714 1.34687,1.34687 4.36741,-1.34687 5.71428,0 0.95782,0.95782 -0.95782,4.75647 0,5.71429 0.67344,0.67343 2.18371,-0.67344 2.85715,0 0.67343,0.67343 0.95238,2.85714 0,2.85714 -0.95238,0 0,-1.90476 0,-2.85714"
               id="path3969"
               inkscape:connector-curvature="0" />
            <g
               id="g3971">
              <g
                 id="g3973">
                <path
                   style="fill:none;stroke:#000000;stroke-width:1px;stroke-linecap:butt;stroke-linejoin:miter;stroke-opacity:1"
                   d="m 377.14286,80.933611 c 4.7619,0 9.52381,0 14.28571,0 0.95238,0 2.85714,-0.952381 2.85714,0 0,0.952381 -2.1837,-0.673435 -2.85714,0 -0.67343,0.673435 -0.67343,2.183708 0,2.857143 1.42857,1.428571 7.14286,-1.428571 8.57143,0 0.67344,0.673435 0,1.904762 0,2.857143 0,0.952381 0.67344,2.183708 0,2.857143 -0.67344,0.673435 -2.18371,-0.673435 -2.85714,0 -0.67344,0.673435 0,1.904762 0,2.857143 0,0.952381 -0.67344,2.183707 0,2.857142 0.67343,0.673436 2.1837,-0.673435 2.85714,0 0.67344,0.673436 -0.67344,2.183708 0,2.857143 1.42857,1.428572 7.14286,-1.428571 8.57143,0 3.80952,3.809522 -4.76191,2.857142 2.85714,2.857142"
                   id="path3975"
                   inkscape:connector-curvature="0" />
                <path
                   style="fill:none;stroke:#000000;stroke-width:1px;stroke-linecap:butt;stroke-linejoin:miter;stroke-opacity:1"
                   d="m 354.28571,98.076468 c 2.751,8.518352 10.02654,-2.129588 14.28572,0 1.20468,0.602339 1.65246,2.254802 2.85714,2.857142 2.28572,1.14286 6.28572,-1.142856 8.57143,0 1.20468,0.60234 1.65247,2.25481 2.85714,2.85714 0.85184,0.42592 3.80953,0 2.85715,0 -1.90477,0 -3.80953,0 -5.71429,0 -0.95238,0 -2.18371,-0.67343 -2.85714,0 -0.67344,0.67344 0.67343,2.18371 0,2.85715 -0.67344,0.67343 -2.18371,-0.67344 -2.85715,0 -0.67343,0.67343 0,1.90476 0,2.85714 0,0.95238 -0.67343,2.18371 0,2.85714 0.67344,0.67344 2.18371,-0.67343 2.85715,0 0.67343,0.67344 -0.67344,2.18371 0,2.85715 0.96349,0.96349 4.75079,-0.96349 5.71428,0 0.67344,0.67343 -0.67343,2.1837 0,2.85714 0.67344,0.67343 2.18371,-0.67344 2.85715,0 1.34687,1.34687 -0.85184,4.01061 0,5.71428 5.94537,11.89075 -0.19725,-3.05438 5.71428,2.85715 0.67344,0.67343 -0.67343,2.1837 0,2.85714 0.67344,0.67343 2.18371,-0.67344 2.85714,0 0.67344,0.67343 -0.67343,2.18371 0,2.85714 3.80953,3.80953 2.85715,-4.7619 2.85715,2.85715"
                   id="path3977"
                   inkscape:connector-curvature="0" />
                <path
                   style="fill:none;stroke:#000000;stroke-width:1px;stroke-linecap:butt;stroke-linejoin:miter;stroke-opacity:1"
                   d="m 417.14286,149.50504 c 12.2804,6.1402 7.16939,5.71429 14.28571,5.71429 0.95238,0 2.18371,-0.67344 2.85714,0 0.67344,0.67343 -0.67343,2.1837 0,2.85714 0.96349,0.96349 4.7508,-0.96349 5.71429,0 0.67344,0.67343 -0.67344,2.18371 0,2.85714 0.0919,0.0919 7.8785,0 8.57143,0"
                   id="path3979"
                   inkscape:connector-curvature="0" />
                <path
                   style="fill:none;stroke:#000000;stroke-width:1px;stroke-linecap:butt;stroke-linejoin:miter;stroke-opacity:1"
                   d="m 322.85714,112.36218 c -3.32628,22.35867 10.65916,2.08773 14.28572,5.71429 0.67343,0.67343 0.88426,3.21085 0,2.85714 -5.1561,-2.06244 -14.28572,-14.12471 -14.28572,-8.57143 0,12.02352 10.5347,11.42857 17.14286,11.42857 0.95238,0 2.18371,-0.67343 2.85714,0 0.67344,0.67344 -0.67343,2.18371 0,2.85715 1.34687,1.34687 4.36742,-1.34687 5.71429,0 0.67343,0.67343 -0.67344,2.1837 0,2.85714 0.68752,0.68752 10.74105,-0.68752 11.42857,0 0.67344,0.67343 0,1.90476 0,2.85714 0.95238,0 2.18371,-0.67343 2.85714,0 0.67344,0.67344 -0.67343,2.18371 0,2.85715 1.42857,1.42857 7.14286,-1.42858 8.57143,0 0.28572,0.28571 0.28572,8.28571 0,8.57142 -0.67343,0.67344 -2.18371,-0.67343 -2.85714,0 -0.67344,0.67344 0.67343,2.18371 0,2.85715 -0.67344,0.67343 -2.18371,-0.67344 -2.85714,0 -0.67344,0.67343 0.67343,2.1837 0,2.85714 -0.67344,0.67343 -1.90477,0 -2.85715,0"
                   id="path3981"
                   inkscape:connector-curvature="0" />
                <path
                   style="fill:none;stroke:#000000;stroke-width:1px;stroke-linecap:butt;stroke-linejoin:miter;stroke-opacity:1"
                   d="M 402.85714,175.21933 385.71429,152.36218"
                   id="path3983"
                   inkscape:connector-curvature="0" />
              </g>
              <path
                 inkscape:connector-curvature="0"
                 id="path3985"
                 d="m 305.71429,189.50504 c -3.80953,0 -11.42858,3.80952 -11.42858,0 0,-3.80952 8.32864,-2.21424 11.42858,0 35.40298,-7.59689 4.05388,12.62532 8.57142,17.14286 0.96349,0.96349 4.7508,-0.96349 5.71429,0 0.67344,0.67343 -0.67344,2.1837 0,2.85714 0.67344,0.67343 2.18371,-0.67344 2.85714,0 0.67344,0.67343 -0.67343,2.18371 0,2.85714 0.28572,0.28572 8.28572,0.28572 8.57143,0 0.68406,-0.68406 -0.6495,-11.42857 0,-11.42857 0.95238,0 0.95238,2.85714 0,2.85714 -1.34687,0 -1.65246,-2.2548 -2.85714,-2.85714 -0.85184,-0.42592 -1.90476,0 -2.85714,0 -7.61905,0 0.95238,0.95238 -2.85715,-2.85714 -0.67343,-0.67344 -2.0053,0.42592 -2.85714,0 -4.96701,-2.48351 -9.52381,-5.71429 -14.28571,-8.57143 z"
                 style="fill:none;stroke:#000000;stroke-width:1px;stroke-linecap:butt;stroke-linejoin:miter;stroke-opacity:1" />
            </g>
          </g>
        </g>
      </g>
    </g>
    <g
       id="g3906"
       transform="matrix(0.96733753,-0.25349182,0.25349182,0.96733753,-242.76501,750.90342)">
      <path
         inkscape:connector-curvature="0"
         id="path3831"
         d="M 403.77842,24.07062 223.13701,166.43974 362.48896,254.93946 548.29156,108.72253 z"
         style="fill:#f4e3d7;stroke:none" />
      <g
         id="g3891">
        <path
           style="fill:none;stroke:#000000;stroke-width:1px;stroke-linecap:butt;stroke-linejoin:miter;stroke-opacity:1"
           d="m 440,115.21933 c 3.80952,0 11.42857,-3.80953 11.42857,0 0,3.80952 -14.12231,-2.69374 -11.42857,0 3.43386,3.43385 9.77684,1.05359 14.28571,2.85714 1.76853,0.70741 -1.34687,4.36741 0,5.71428 0.95405,0.95405 4.76025,-0.95404 5.71429,0 0.67344,0.67344 -0.67344,2.18371 0,2.85715 0.67344,0.67343 2.18371,-0.67344 2.85714,0 0.67344,0.67343 -0.67343,2.1837 0,2.85714 0.67344,0.67343 2.18371,-0.67344 2.85715,0 1.42857,1.42857 -1.42858,7.14286 0,8.57143 0.67343,0.67343 2.85714,-0.95238 2.85714,0 0,0.95238 -1.90476,0 -2.85714,0"
           id="path3837"
           inkscape:connector-curvature="0" />
        <g
           id="g3878">
          <path
             inkscape:connector-curvature="0"
             id="path3833"
             d="m 405.71429,55.219325 c 3.80952,0 11.42857,-3.809523 11.42857,0 0,3.809524 -12.63325,-3.614031 -11.42857,0 1.7561,5.268312 9.94932,5.102318 14.28571,8.571429 0.74368,0.594948 -0.67344,2.183708 0,2.857143 0.96349,0.96349 4.7508,-0.96349 5.71429,0 3.80952,3.809524 -4.76191,2.857143 2.85714,2.857143 2.0314,0 8.57143,-1.200132 8.57143,2.857143 0,0.952381 -2.18371,-0.673435 -2.85715,0 -1.34687,1.34687 1.34687,4.367415 0,5.714285 -0.67343,0.673435 -2.1837,-0.673435 -2.85714,0 -0.67343,0.673435 0,1.904762 0,2.857143 0,0.952381 -0.67343,2.183708 0,2.857143 1.42857,1.428571 7.14286,-1.428571 8.57143,0 0.67344,0.673435 -0.67344,2.183708 0,2.857143 0.67344,0.673435 1.95363,-0.301169 2.85714,0 20.69548,6.898492 -4.50459,-0.823725 8.57143,5.714286 1.13284,0.566417 7.98733,-0.584104 8.57143,0 0.67344,0.673435 -0.67344,2.183707 0,2.857142 0.95404,0.954045 4.76024,-0.954044 5.71429,0 0.94771,0.947711 -0.94771,4.766576 0,5.714285 1.34687,1.34687 5.71428,-1.904761 5.71428,0 0,4.04762 -13.33333,-8.095237 2.85714,0 0.85184,0.42592 -0.67343,2.18371 0,2.85714 1.34687,1.34687 5.71429,-1.90476 5.71429,0 0,0.95238 -3.80952,0 -2.85714,0 2.85714,0 5.71428,0 8.57143,0 0.95238,0 2.1837,-0.67343 2.85714,0 0.67343,0.67344 -0.67344,2.18371 0,2.85715 0.67343,0.67343 2.85714,-0.95238 2.85714,0 0,0.95238 -2.85714,-0.95238 -2.85714,0 0,4.05727 6.54003,2.85714 8.57143,2.85714"
             style="fill:none;stroke:#000000;stroke-width:1px;stroke-linecap:butt;stroke-linejoin:miter;stroke-opacity:1" />
          <g
             id="g3867">
            <path
               style="fill:none;stroke:#000000;stroke-width:1px;stroke-linecap:butt;stroke-linejoin:miter;stroke-opacity:1"
               d="m 288.57143,132.36218 c 9.78402,-2.98461 8.8313,8.70137 14.28571,11.42857 0.85184,0.42592 2.18371,-0.67343 2.85715,0 0.67343,0.67344 -0.67344,2.18371 0,2.85715 0.67343,0.67343 2.1837,-0.67344 2.85714,0 0.67343,0.67343 -0.67344,2.1837 0,2.85714 1.34687,1.34687 4.01061,-0.85184 5.71428,0 1.20468,0.60234 1.65247,2.2548 2.85715,2.85714 1.70367,0.85184 5.71428,-1.90476 5.71428,0 0,0.95238 -2.85714,-0.95238 -2.85714,0 0,5.94537 4.00677,1.14963 5.71429,2.85715 0.67343,0.67343 -0.67344,2.1837 0,2.85714 0.67343,0.67343 2.1837,-0.67344 2.85714,0 0.67343,0.67343 -0.67344,2.18371 0,2.85714 0.68752,0.68752 10.74105,-0.68752 11.42857,0 0.67344,0.67344 -0.67344,2.18371 0,2.85714 0.67344,0.67344 1.90476,0 2.85714,0 0.95238,0 1.90476,0 2.85715,0 0.95238,0 1.90476,0 2.85714,0 0.95238,0 2.18371,-0.67343 2.85714,0 0.68752,0.68752 -0.68752,10.74106 0,11.42858 1.42857,1.42857 7.14286,-1.42858 8.57143,0 0.67344,0.67343 -0.67344,2.1837 0,2.85714 0.0919,0.0919 7.8785,0 8.57143,0 0.95238,0 1.90476,0 2.85714,0 0.95238,0 2.18371,-0.67344 2.85714,0 1.34687,1.34687 -1.34687,4.36741 0,5.71428 0.67344,0.67344 2.18371,-0.67343 2.85715,0 0.67343,0.67344 -0.67344,2.18371 0,2.85715 0.67343,0.67343 2.1837,-0.67344 2.85714,0 0.67344,0.67343 0,1.90476 0,2.85714 0.95238,0 2.18371,-0.67344 2.85714,0 0.67344,0.67343 -0.67343,2.18371 0,2.85714 0.67344,0.67344 2.18371,-0.67343 2.85715,0 1.34687,1.34687 -1.34687,4.36742 0,5.71429 0.67343,0.67343 2.1837,-0.67344 2.85714,0 0.67343,0.67343 -0.67344,2.18371 0,2.85714 1.34687,1.34687 4.36741,-1.34687 5.71428,0 0.95782,0.95782 -0.95782,4.75647 0,5.71429 0.67344,0.67343 2.18371,-0.67344 2.85715,0 0.67343,0.67343 0.95238,2.85714 0,2.85714 -0.95238,0 0,-1.90476 0,-2.85714"
               id="path3847"
               inkscape:connector-curvature="0" />
            <g
               id="g3858">
              <g
                 id="g3851">
                <path
                   style="fill:none;stroke:#000000;stroke-width:1px;stroke-linecap:butt;stroke-linejoin:miter;stroke-opacity:1"
                   d="m 377.14286,80.933611 c 4.7619,0 9.52381,0 14.28571,0 0.95238,0 2.85714,-0.952381 2.85714,0 0,0.952381 -2.1837,-0.673435 -2.85714,0 -0.67343,0.673435 -0.67343,2.183708 0,2.857143 1.42857,1.428571 7.14286,-1.428571 8.57143,0 0.67344,0.673435 0,1.904762 0,2.857143 0,0.952381 0.67344,2.183708 0,2.857143 -0.67344,0.673435 -2.18371,-0.673435 -2.85714,0 -0.67344,0.673435 0,1.904762 0,2.857143 0,0.952381 -0.67344,2.183707 0,2.857142 0.67343,0.673436 2.1837,-0.673435 2.85714,0 0.67344,0.673436 -0.67344,2.183708 0,2.857143 1.42857,1.428572 7.14286,-1.428571 8.57143,0 3.80952,3.809522 -4.76191,2.857142 2.85714,2.857142"
                   id="path3835"
                   inkscape:connector-curvature="0" />
                <path
                   style="fill:none;stroke:#000000;stroke-width:1px;stroke-linecap:butt;stroke-linejoin:miter;stroke-opacity:1"
                   d="m 354.28571,98.076468 c 2.751,8.518352 10.02654,-2.129588 14.28572,0 1.20468,0.602339 1.65246,2.254802 2.85714,2.857142 2.28572,1.14286 6.28572,-1.142856 8.57143,0 1.20468,0.60234 1.65247,2.25481 2.85714,2.85714 0.85184,0.42592 3.80953,0 2.85715,0 -1.90477,0 -3.80953,0 -5.71429,0 -0.95238,0 -2.18371,-0.67343 -2.85714,0 -0.67344,0.67344 0.67343,2.18371 0,2.85715 -0.67344,0.67343 -2.18371,-0.67344 -2.85715,0 -0.67343,0.67343 0,1.90476 0,2.85714 0,0.95238 -0.67343,2.18371 0,2.85714 0.67344,0.67344 2.18371,-0.67343 2.85715,0 0.67343,0.67344 -0.67344,2.18371 0,2.85715 0.96349,0.96349 4.75079,-0.96349 5.71428,0 0.67344,0.67343 -0.67343,2.1837 0,2.85714 0.67344,0.67343 2.18371,-0.67344 2.85715,0 1.34687,1.34687 -0.85184,4.01061 0,5.71428 5.94537,11.89075 -0.19725,-3.05438 5.71428,2.85715 0.67344,0.67343 -0.67343,2.1837 0,2.85714 0.67344,0.67343 2.18371,-0.67344 2.85714,0 0.67344,0.67343 -0.67343,2.18371 0,2.85714 3.80953,3.80953 2.85715,-4.7619 2.85715,2.85715"
                   id="path3839"
                   inkscape:connector-curvature="0" />
                <path
                   style="fill:none;stroke:#000000;stroke-width:1px;stroke-linecap:butt;stroke-linejoin:miter;stroke-opacity:1"
                   d="m 417.14286,149.50504 c 12.2804,6.1402 7.16939,5.71429 14.28571,5.71429 0.95238,0 2.18371,-0.67344 2.85714,0 0.67344,0.67343 -0.67343,2.1837 0,2.85714 0.96349,0.96349 4.7508,-0.96349 5.71429,0 0.67344,0.67343 -0.67344,2.18371 0,2.85714 0.0919,0.0919 7.8785,0 8.57143,0"
                   id="path3841"
                   inkscape:connector-curvature="0" />
                <path
                   style="fill:none;stroke:#000000;stroke-width:1px;stroke-linecap:butt;stroke-linejoin:miter;stroke-opacity:1"
                   d="m 322.85714,112.36218 c -3.32628,22.35867 10.65916,2.08773 14.28572,5.71429 0.67343,0.67343 0.88426,3.21085 0,2.85714 -5.1561,-2.06244 -14.28572,-14.12471 -14.28572,-8.57143 0,12.02352 10.5347,11.42857 17.14286,11.42857 0.95238,0 2.18371,-0.67343 2.85714,0 0.67344,0.67344 -0.67343,2.18371 0,2.85715 1.34687,1.34687 4.36742,-1.34687 5.71429,0 0.67343,0.67343 -0.67344,2.1837 0,2.85714 0.68752,0.68752 10.74105,-0.68752 11.42857,0 0.67344,0.67343 0,1.90476 0,2.85714 0.95238,0 2.18371,-0.67343 2.85714,0 0.67344,0.67344 -0.67343,2.18371 0,2.85715 1.42857,1.42857 7.14286,-1.42858 8.57143,0 0.28572,0.28571 0.28572,8.28571 0,8.57142 -0.67343,0.67344 -2.18371,-0.67343 -2.85714,0 -0.67344,0.67344 0.67343,2.18371 0,2.85715 -0.67344,0.67343 -2.18371,-0.67344 -2.85714,0 -0.67344,0.67343 0.67343,2.1837 0,2.85714 -0.67344,0.67343 -1.90477,0 -2.85715,0"
                   id="path3843"
                   inkscape:connector-curvature="0" />
                <path
                   style="fill:none;stroke:#000000;stroke-width:1px;stroke-linecap:butt;stroke-linejoin:miter;stroke-opacity:1"
                   d="M 402.85714,175.21933 385.71429,152.36218"
                   id="path3845"
                   inkscape:connector-curvature="0" />
              </g>
              <path
                 inkscape:connector-curvature="0"
                 id="path3849"
                 d="m 305.71429,189.50504 c -3.80953,0 -11.42858,3.80952 -11.42858,0 0,-3.80952 8.32864,-2.21424 11.42858,0 35.40298,-7.59689 4.05388,12.62532 8.57142,17.14286 0.96349,0.96349 4.7508,-0.96349 5.71429,0 0.67344,0.67343 -0.67344,2.1837 0,2.85714 0.67344,0.67343 2.18371,-0.67344 2.85714,0 0.67344,0.67343 -0.67343,2.18371 0,2.85714 0.28572,0.28572 8.28572,0.28572 8.57143,0 0.68406,-0.68406 -0.6495,-11.42857 0,-11.42857 0.95238,0 0.95238,2.85714 0,2.85714 -1.34687,0 -1.65246,-2.2548 -2.85714,-2.85714 -0.85184,-0.42592 -1.90476,0 -2.85714,0 -7.61905,0 0.95238,0.95238 -2.85715,-2.85714 -0.67343,-0.67344 -2.0053,0.42592 -2.85714,0 -4.96701,-2.48351 -9.52381,-5.71429 -14.28571,-8.57143 z"
                 style="fill:none;stroke:#000000;stroke-width:1px;stroke-linecap:butt;stroke-linejoin:miter;stroke-opacity:1" />
            </g>
          </g>
        </g>
      </g>
    </g>
    <g
       style="fill:#ff0000;stroke:none"
       transform="matrix(0.37979844,0.37661847,-0.42664495,0.33526497,731.06189,518.99373)"
       id="g3029">
      <rect
         style="fill:#ff0000;fill-opacity:1;stroke:none"
         id="rect3031"
         width="394.28571"
         height="28.57143"
         x="128.57143"
         y="843.79077" />
      <path
         style="fill:#ff0000;stroke:none"
         d="M 522.85714,872.36218 520,943.79075 l 100,-80 -100,-88.57142 z"
         id="path3033"
         inkscape:connector-curvature="0" />
    </g>
    <g
       id="g3109"
       transform="translate(14.285714,145.71429)">
      <path
         sodipodi:nodetypes="csscc"
         inkscape:connector-curvature="0"
         id="path2991"
         d="m 57.142857,360.93361 c 0,0 117.142853,-197.14286 180.000003,-205.71428 C 300,146.6479 168.57143,49.50504 100,92.362183 31.428571,135.21933 8.5714286,206.6479 8.5714286,206.6479 20.446953,388.10154 108.98884,366.69731 57.142857,360.93361 z"
         style="fill:#c83737;stroke:none" />
      <path
         style="fill:#c83737;stroke:none"
         d="m 710.85153,372.36219 c 0,0 -117.14285,-197.14286 -180,-205.71428 -62.85714,-8.57143 68.57143,-105.714298 137.14286,-62.85715 68.57142,42.85715 91.42857,114.28572 91.42857,114.28572 -11.87553,181.45364 -100.41741,160.04941 -48.57143,154.28571 z"
         id="path2993"
         inkscape:connector-curvature="0"
         sodipodi:nodetypes="csscc" />
      <g
         id="g3098">
        <g
           id="g3089">
          <g
             id="g3082">
            <path
               sodipodi:type="arc"
               style="fill:#162d50;fill-opacity:1;stroke:#000000;stroke-opacity:1"
               id="path2985"
               sodipodi:cx="122.85714"
               sodipodi:cy="286.64789"
               sodipodi:rx="317.14285"
               sodipodi:ry="308.57144"
               d="m 439.99999,286.64789 c 0,170.4193 -141.98969,308.57144 -317.14285,308.57144 -175.153162,0 -317.14285,-138.15214 -317.14285,-308.57144 0,-170.4193 141.989688,-308.571443 317.14285,-308.571443 175.15316,0 317.14285,138.152143 317.14285,308.571443 z"
               transform="translate(257.14286,188.57143)" />
            <g
               id="g3077">
              <path
                 transform="matrix(0.96306203,0,0,0.9152741,148.86511,214.04443)"
                 d="m 548.57144,283.79074 c 0,176.73112 -138.15214,320 -308.57144,320 -170.419301,0 -308.571442,-143.26888 -308.571442,-320 0,-176.73112 138.152141,-319.999999 308.571442,-319.999999 170.4193,0 308.57144,143.268879 308.57144,319.999999 z"
                 sodipodi:ry="320"
                 sodipodi:rx="308.57144"
                 sodipodi:cy="283.79074"
                 sodipodi:cx="240"
                 id="path2987"
                 style="fill:#ffffff;fill-opacity:1;stroke:#000000;stroke-opacity:1"
                 sodipodi:type="arc" />
              <path
                 transform="matrix(0.51357824,-0.57585743,0.46202979,0.64010557,-113.58347,609.66744)"
                 d="m 617.14287,866.64789 c 0,59.96234 -7.03552,108.57142 -15.71428,108.57142 -8.67876,0 -15.71429,-48.60908 -15.71429,-108.57142 0,-59.96234 7.03553,-108.57143 15.71429,-108.57143 8.67876,0 15.71428,48.60909 15.71428,108.57143 z"
                 sodipodi:ry="108.57143"
                 sodipodi:rx="15.714286"
                 sodipodi:cy="866.64789"
                 sodipodi:cx="601.42859"
                 id="path3039"
                 style="fill:#162d50;fill-opacity:1;stroke:#000000;stroke-opacity:1"
                 sodipodi:type="arc" />
              <path
                 sodipodi:type="arc"
                 style="fill:#162d50;fill-opacity:1;stroke:#000000;stroke-opacity:1"
                 id="path3041"
                 sodipodi:cx="601.42859"
                 sodipodi:cy="866.64789"
                 sodipodi:rx="15.714286"
                 sodipodi:ry="108.57143"
                 d="m 617.14287,866.64789 c 0,59.96234 -7.03552,108.57142 -15.71428,108.57142 -8.67876,0 -15.71429,-48.60908 -15.71429,-108.57142 0,-59.96234 7.03553,-108.57143 15.71429,-108.57143 8.67876,0 15.71428,48.60909 15.71428,108.57143 z"
                 transform="matrix(0.65340594,0.41040841,-0.55413875,0.56226054,228.69476,78.248917)" />
            </g>
          </g>
          <path
             transform="matrix(0.8973217,0.44137713,-0.44137713,0.8973217,245.36573,-155.69019)"
             d="m 668.57145,492.36218 c 0,4.73387 -52.44665,8.57143 -117.14286,8.57143 -64.69622,0 -117.14286,-3.83756 -117.14286,-8.57143 0,-4.73387 52.44664,-8.57143 117.14286,-8.57143 64.69621,0 117.14286,3.83756 117.14286,8.57143 z"
             sodipodi:ry="8.5714283"
             sodipodi:rx="117.14286"
             sodipodi:cy="492.36218"
             sodipodi:cx="551.42859"
             id="path3037"
             style="fill:#002255;fill-opacity:1;stroke:#000000;stroke-opacity:1"
             sodipodi:type="arc" />
        </g>
        <path
           sodipodi:type="arc"
           style="fill:#002255;fill-opacity:1;stroke:#000000;stroke-opacity:1"
           id="path3035"
           sodipodi:cx="377.14285"
           sodipodi:cy="465.21933"
           sodipodi:rx="28.571428"
           sodipodi:ry="27.142857"
           d="m 405.71428,465.21933 c 0,14.99059 -12.79186,27.14286 -28.57143,27.14286 -15.77956,0 -28.57143,-12.15227 -28.57143,-27.14286 0,-14.99059 12.79187,-27.14286 28.57143,-27.14286 15.77957,0 28.57143,12.15227 28.57143,27.14286 z" />
      </g>
    </g>
    <g
       id="g3127"
       transform="translate(-45.714286,2.8571429)">
      <path
         inkscape:connector-curvature="0"
         id="path3819"
         d="m 254.28571,849.50504 0,157.14286 288.57143,-2.8571 L 540,849.50504 z"
         style="fill:#000000;stroke:#000000;stroke-width:1px;stroke-linecap:butt;stroke-linejoin:miter;stroke-opacity:1" />
      <g
         id="g3123">
        <rect
           style="fill:#162d50;fill-opacity:1;stroke:none"
           id="rect3825"
           width="260"
           height="128.57143"
           x="268.57144"
           y="863.79077" />
        <path
           style="fill:#333333;stroke:#000000;stroke-width:1px;stroke-linecap:butt;stroke-linejoin:miter;stroke-opacity:1"
           d="m 374.28572,1006.6479 -17.14286,45.7143 100,-2.8572 -25.71429,-42.8571 z"
           id="path3827"
           inkscape:connector-curvature="0"
           sodipodi:nodetypes="ccccc" />
      </g>
    </g>
    <g
       transform="translate(99.999979,697.14287)"
       id="g3923">
      <path
         style="fill:#f4e3d7;stroke:none"
         d="M 403.77842,24.07062 223.13701,166.43974 362.48896,254.93946 548.29156,108.72253 z"
         id="path3925"
         inkscape:connector-curvature="0" />
      <g
         id="g3927">
        <path
           inkscape:connector-curvature="0"
           id="path3929"
           d="m 440,115.21933 c 3.80952,0 11.42857,-3.80953 11.42857,0 0,3.80952 -14.12231,-2.69374 -11.42857,0 3.43386,3.43385 9.77684,1.05359 14.28571,2.85714 1.76853,0.70741 -1.34687,4.36741 0,5.71428 0.95405,0.95405 4.76025,-0.95404 5.71429,0 0.67344,0.67344 -0.67344,2.18371 0,2.85715 0.67344,0.67343 2.18371,-0.67344 2.85714,0 0.67344,0.67343 -0.67343,2.1837 0,2.85714 0.67344,0.67343 2.18371,-0.67344 2.85715,0 1.42857,1.42857 -1.42858,7.14286 0,8.57143 0.67343,0.67343 2.85714,-0.95238 2.85714,0 0,0.95238 -1.90476,0 -2.85714,0"
           style="fill:none;stroke:#000000;stroke-width:1px;stroke-linecap:butt;stroke-linejoin:miter;stroke-opacity:1" />
        <g
           id="g3931">
          <path
             style="fill:none;stroke:#000000;stroke-width:1px;stroke-linecap:butt;stroke-linejoin:miter;stroke-opacity:1"
             d="m 405.71429,55.219325 c 3.80952,0 11.42857,-3.809523 11.42857,0 0,3.809524 -12.63325,-3.614031 -11.42857,0 1.7561,5.268312 9.94932,5.102318 14.28571,8.571429 0.74368,0.594948 -0.67344,2.183708 0,2.857143 0.96349,0.96349 4.7508,-0.96349 5.71429,0 3.80952,3.809524 -4.76191,2.857143 2.85714,2.857143 2.0314,0 8.57143,-1.200132 8.57143,2.857143 0,0.952381 -2.18371,-0.673435 -2.85715,0 -1.34687,1.34687 1.34687,4.367415 0,5.714285 -0.67343,0.673435 -2.1837,-0.673435 -2.85714,0 -0.67343,0.673435 0,1.904762 0,2.857143 0,0.952381 -0.67343,2.183708 0,2.857143 1.42857,1.428571 7.14286,-1.428571 8.57143,0 0.67344,0.673435 -0.67344,2.183708 0,2.857143 0.67344,0.673435 1.95363,-0.301169 2.85714,0 20.69548,6.898492 -4.50459,-0.823725 8.57143,5.714286 1.13284,0.566417 7.98733,-0.584104 8.57143,0 0.67344,0.673435 -0.67344,2.183707 0,2.857142 0.95404,0.954045 4.76024,-0.954044 5.71429,0 0.94771,0.947711 -0.94771,4.766576 0,5.714285 1.34687,1.34687 5.71428,-1.904761 5.71428,0 0,4.04762 -13.33333,-8.095237 2.85714,0 0.85184,0.42592 -0.67343,2.18371 0,2.85714 1.34687,1.34687 5.71429,-1.90476 5.71429,0 0,0.95238 -3.80952,0 -2.85714,0 2.85714,0 5.71428,0 8.57143,0 0.95238,0 2.1837,-0.67343 2.85714,0 0.67343,0.67344 -0.67344,2.18371 0,2.85715 0.67343,0.67343 2.85714,-0.95238 2.85714,0 0,0.95238 -2.85714,-0.95238 -2.85714,0 0,4.05727 6.54003,2.85714 8.57143,2.85714"
             id="path3933"
             inkscape:connector-curvature="0" />
          <g
             id="g3935">
            <path
               inkscape:connector-curvature="0"
               id="path3937"
               d="m 288.57143,132.36218 c 9.78402,-2.98461 8.8313,8.70137 14.28571,11.42857 0.85184,0.42592 2.18371,-0.67343 2.85715,0 0.67343,0.67344 -0.67344,2.18371 0,2.85715 0.67343,0.67343 2.1837,-0.67344 2.85714,0 0.67343,0.67343 -0.67344,2.1837 0,2.85714 1.34687,1.34687 4.01061,-0.85184 5.71428,0 1.20468,0.60234 1.65247,2.2548 2.85715,2.85714 1.70367,0.85184 5.71428,-1.90476 5.71428,0 0,0.95238 -2.85714,-0.95238 -2.85714,0 0,5.94537 4.00677,1.14963 5.71429,2.85715 0.67343,0.67343 -0.67344,2.1837 0,2.85714 0.67343,0.67343 2.1837,-0.67344 2.85714,0 0.67343,0.67343 -0.67344,2.18371 0,2.85714 0.68752,0.68752 10.74105,-0.68752 11.42857,0 0.67344,0.67344 -0.67344,2.18371 0,2.85714 0.67344,0.67344 1.90476,0 2.85714,0 0.95238,0 1.90476,0 2.85715,0 0.95238,0 1.90476,0 2.85714,0 0.95238,0 2.18371,-0.67343 2.85714,0 0.68752,0.68752 -0.68752,10.74106 0,11.42858 1.42857,1.42857 7.14286,-1.42858 8.57143,0 0.67344,0.67343 -0.67344,2.1837 0,2.85714 0.0919,0.0919 7.8785,0 8.57143,0 0.95238,0 1.90476,0 2.85714,0 0.95238,0 2.18371,-0.67344 2.85714,0 1.34687,1.34687 -1.34687,4.36741 0,5.71428 0.67344,0.67344 2.18371,-0.67343 2.85715,0 0.67343,0.67344 -0.67344,2.18371 0,2.85715 0.67343,0.67343 2.1837,-0.67344 2.85714,0 0.67344,0.67343 0,1.90476 0,2.85714 0.95238,0 2.18371,-0.67344 2.85714,0 0.67344,0.67343 -0.67343,2.18371 0,2.85714 0.67344,0.67344 2.18371,-0.67343 2.85715,0 1.34687,1.34687 -1.34687,4.36742 0,5.71429 0.67343,0.67343 2.1837,-0.67344 2.85714,0 0.67343,0.67343 -0.67344,2.18371 0,2.85714 1.34687,1.34687 4.36741,-1.34687 5.71428,0 0.95782,0.95782 -0.95782,4.75647 0,5.71429 0.67344,0.67343 2.18371,-0.67344 2.85715,0 0.67343,0.67343 0.95238,2.85714 0,2.85714 -0.95238,0 0,-1.90476 0,-2.85714"
               style="fill:none;stroke:#000000;stroke-width:1px;stroke-linecap:butt;stroke-linejoin:miter;stroke-opacity:1" />
            <g
               id="g3939">
              <g
                 id="g3941">
                <path
                   inkscape:connector-curvature="0"
                   id="path3943"
                   d="m 377.14286,80.933611 c 4.7619,0 9.52381,0 14.28571,0 0.95238,0 2.85714,-0.952381 2.85714,0 0,0.952381 -2.1837,-0.673435 -2.85714,0 -0.67343,0.673435 -0.67343,2.183708 0,2.857143 1.42857,1.428571 7.14286,-1.428571 8.57143,0 0.67344,0.673435 0,1.904762 0,2.857143 0,0.952381 0.67344,2.183708 0,2.857143 -0.67344,0.673435 -2.18371,-0.673435 -2.85714,0 -0.67344,0.673435 0,1.904762 0,2.857143 0,0.952381 -0.67344,2.183707 0,2.857142 0.67343,0.673436 2.1837,-0.673435 2.85714,0 0.67344,0.673436 -0.67344,2.183708 0,2.857143 1.42857,1.428572 7.14286,-1.428571 8.57143,0 3.80952,3.809522 -4.76191,2.857142 2.85714,2.857142"
                   style="fill:none;stroke:#000000;stroke-width:1px;stroke-linecap:butt;stroke-linejoin:miter;stroke-opacity:1" />
                <path
                   inkscape:connector-curvature="0"
                   id="path3945"
                   d="m 354.28571,98.076468 c 2.751,8.518352 10.02654,-2.129588 14.28572,0 1.20468,0.602339 1.65246,2.254802 2.85714,2.857142 2.28572,1.14286 6.28572,-1.142856 8.57143,0 1.20468,0.60234 1.65247,2.25481 2.85714,2.85714 0.85184,0.42592 3.80953,0 2.85715,0 -1.90477,0 -3.80953,0 -5.71429,0 -0.95238,0 -2.18371,-0.67343 -2.85714,0 -0.67344,0.67344 0.67343,2.18371 0,2.85715 -0.67344,0.67343 -2.18371,-0.67344 -2.85715,0 -0.67343,0.67343 0,1.90476 0,2.85714 0,0.95238 -0.67343,2.18371 0,2.85714 0.67344,0.67344 2.18371,-0.67343 2.85715,0 0.67343,0.67344 -0.67344,2.18371 0,2.85715 0.96349,0.96349 4.75079,-0.96349 5.71428,0 0.67344,0.67343 -0.67343,2.1837 0,2.85714 0.67344,0.67343 2.18371,-0.67344 2.85715,0 1.34687,1.34687 -0.85184,4.01061 0,5.71428 5.94537,11.89075 -0.19725,-3.05438 5.71428,2.85715 0.67344,0.67343 -0.67343,2.1837 0,2.85714 0.67344,0.67343 2.18371,-0.67344 2.85714,0 0.67344,0.67343 -0.67343,2.18371 0,2.85714 3.80953,3.80953 2.85715,-4.7619 2.85715,2.85715"
                   style="fill:none;stroke:#000000;stroke-width:1px;stroke-linecap:butt;stroke-linejoin:miter;stroke-opacity:1" />
                <path
                   inkscape:connector-curvature="0"
                   id="path3947"
                   d="m 417.14286,149.50504 c 12.2804,6.1402 7.16939,5.71429 14.28571,5.71429 0.95238,0 2.18371,-0.67344 2.85714,0 0.67344,0.67343 -0.67343,2.1837 0,2.85714 0.96349,0.96349 4.7508,-0.96349 5.71429,0 0.67344,0.67343 -0.67344,2.18371 0,2.85714 0.0919,0.0919 7.8785,0 8.57143,0"
                   style="fill:none;stroke:#000000;stroke-width:1px;stroke-linecap:butt;stroke-linejoin:miter;stroke-opacity:1" />
                <path
                   inkscape:connector-curvature="0"
                   id="path3949"
                   d="m 322.85714,112.36218 c -3.32628,22.35867 10.65916,2.08773 14.28572,5.71429 0.67343,0.67343 0.88426,3.21085 0,2.85714 -5.1561,-2.06244 -14.28572,-14.12471 -14.28572,-8.57143 0,12.02352 10.5347,11.42857 17.14286,11.42857 0.95238,0 2.18371,-0.67343 2.85714,0 0.67344,0.67344 -0.67343,2.18371 0,2.85715 1.34687,1.34687 4.36742,-1.34687 5.71429,0 0.67343,0.67343 -0.67344,2.1837 0,2.85714 0.68752,0.68752 10.74105,-0.68752 11.42857,0 0.67344,0.67343 0,1.90476 0,2.85714 0.95238,0 2.18371,-0.67343 2.85714,0 0.67344,0.67344 -0.67343,2.18371 0,2.85715 1.42857,1.42857 7.14286,-1.42858 8.57143,0 0.28572,0.28571 0.28572,8.28571 0,8.57142 -0.67343,0.67344 -2.18371,-0.67343 -2.85714,0 -0.67344,0.67344 0.67343,2.18371 0,2.85715 -0.67344,0.67343 -2.18371,-0.67344 -2.85714,0 -0.67344,0.67343 0.67343,2.1837 0,2.85714 -0.67344,0.67343 -1.90477,0 -2.85715,0"
                   style="fill:none;stroke:#000000;stroke-width:1px;stroke-linecap:butt;stroke-linejoin:miter;stroke-opacity:1" />
                <path
                   inkscape:connector-curvature="0"
                   id="path3951"
                   d="M 402.85714,175.21933 385.71429,152.36218"
                   style="fill:none;stroke:#000000;stroke-width:1px;stroke-linecap:butt;stroke-linejoin:miter;stroke-opacity:1" />
              </g>
              <path
                 style="fill:none;stroke:#000000;stroke-width:1px;stroke-linecap:butt;stroke-linejoin:miter;stroke-opacity:1"
                 d="m 305.71429,189.50504 c -3.80953,0 -11.42858,3.80952 -11.42858,0 0,-3.80952 8.32864,-2.21424 11.42858,0 35.40298,-7.59689 4.05388,12.62532 8.57142,17.14286 0.96349,0.96349 4.7508,-0.96349 5.71429,0 0.67344,0.67343 -0.67344,2.1837 0,2.85714 0.67344,0.67343 2.18371,-0.67344 2.85714,0 0.67344,0.67343 -0.67343,2.18371 0,2.85714 0.28572,0.28572 8.28572,0.28572 8.57143,0 0.68406,-0.68406 -0.6495,-11.42857 0,-11.42857 0.95238,0 0.95238,2.85714 0,2.85714 -1.34687,0 -1.65246,-2.2548 -2.85714,-2.85714 -0.85184,-0.42592 -1.90476,0 -2.85714,0 -7.61905,0 0.95238,0.95238 -2.85715,-2.85714 -0.67343,-0.67344 -2.0053,0.42592 -2.85714,0 -4.96701,-2.48351 -9.52381,-5.71429 -14.28571,-8.57143 z"
                 id="path3953"
                 inkscape:connector-curvature="0" />
            </g>
          </g>
        </g>
      </g>
    </g>
    <g
       transform="matrix(1.3827249,0.69148978,-1.2605149,2.5205656,318.18022,-465.97468)"
       inkscape:transform-center-y="-14.285714"
       style="font-size:40px;font-style:normal;font-weight:normal;line-height:125%;letter-spacing:0px;word-spacing:0px;fill:#000000;fill-opacity:1;stroke:none;font-family:Sans"
       id="flowRoot2995">
      <path
         d="m 240.28125,364.04923 c -2e-5,-2.24997 -0.50002,-3.96872 -1.5,-5.15625 -1.00001,-1.18747 -2.50001,-1.78122 -4.5,-1.78125 -1.50001,3e-5 -2.78126,0.40628 -3.84375,1.21875 -1.06251,0.81253 -1.59376,1.84378 -1.59375,3.09375 -1e-5,0.75003 0.24999,1.37503 0.75,1.875 0.37499,0.50002 0.56249,1.00002 0.5625,1.5 -1e-5,0.62502 -0.15626,1.09377 -0.46875,1.40625 -0.31251,0.31252 -0.78126,0.46877 -1.40625,0.46875 -0.75,2e-5 -1.34375,-0.21873 -1.78125,-0.65625 -0.4375,-0.43748 -0.65625,-1.15623 -0.65625,-2.15625 0,-2.62497 0.9375,-4.62497 2.8125,-6 1.87499,-1.37497 3.87499,-2.06247 6,-2.0625 2.99999,3e-5 5.21873,0.75003 6.65625,2.25 1.43748,1.50003 2.15623,3.37503 2.15625,5.625 -2e-5,1.50002 -0.34377,3.00002 -1.03125,4.5 -0.68752,1.50002 -1.78127,2.93752 -3.28125,4.3125 -3.62501,3.50001 -6.40626,6.34376 -8.34375,8.53125 -1.93751,2.18751 -3.09375,3.65625 -3.46875,4.40625 l 11.0625,0 c 1.12498,0 2.06248,-0.4375 2.8125,-1.3125 0.74998,-0.87499 1.24998,-2.18749 1.5,-3.9375 l 1.125,0 -1.125,8.0625 -17.4375,0 0,-2.4375 c 0.625,-1.125 1.65625,-2.56249 3.09375,-4.3125 1.43749,-1.74999 3.34374,-3.81249 5.71875,-6.1875 2.12499,-2.12498 3.68749,-4.12498 4.6875,-6 0.99998,-1.87498 1.49998,-3.62498 1.5,-5.25 z"
         style="font-size:48px;font-variant:normal;font-stretch:normal;font-family:NSimSun;-inkscape-font-specification:NSimSun"
         id="path3112"
         inkscape:connector-curvature="0" />
      <path
         d="m 259.78125,367.61173 c 2.37498,2e-5 4.31248,0.90627 5.8125,2.71875 1.49998,1.81252 2.24998,4.21876 2.25,7.21875 -2e-5,3.37501 -0.78127,6.0625 -2.34375,8.0625 -1.56252,2 -3.96876,3 -7.21875,3 -2.25001,0 -4.25001,-0.65625 -6,-1.96875 -1.75,-1.3125 -2.625,-2.90625 -2.625,-4.78125 0,-0.74999 0.21875,-1.40624 0.65625,-1.96875 0.4375,-0.56249 1.03125,-0.84374 1.78125,-0.84375 0.74999,10e-6 1.24999,0.25001 1.5,0.75 0.24999,0.50001 0.37499,0.93751 0.375,1.3125 -1e-5,0.75001 -0.18751,1.31251 -0.5625,1.6875 -0.37501,0.50001 -0.56251,1 -0.5625,1.5 -1e-5,1 0.59374,1.75 1.78125,2.25 1.18749,0.5 2.46874,0.75 3.84375,0.75 1.99999,0 3.53123,-0.8125 4.59375,-2.4375 1.06248,-1.62499 1.59373,-3.93749 1.59375,-6.9375 -2e-5,-2.49999 -0.46877,-4.53123 -1.40625,-6.09375 -0.93752,-1.56248 -2.34376,-2.34373 -4.21875,-2.34375 -1.37501,2e-5 -2.56251,0.25002 -3.5625,0.75 -1.00001,0.50002 -1.93751,1.56252 -2.8125,3.1875 l -1.6875,-0.1875 0.9375,-17.0625 15.375,0 -0.5625,2.8125 -13.5,0 -0.75,12.375 c 1.24999,-1.74998 2.46874,-2.81248 3.65625,-3.1875 1.18749,-0.37498 2.40624,-0.56248 3.65625,-0.5625 z"
         style="font-size:48px;font-variant:normal;font-stretch:normal;font-family:NSimSun;-inkscape-font-specification:NSimSun"
         id="path3114"
         inkscape:connector-curvature="0" />
      <path
         d="m 285.09375,368.54923 c -10e-6,0.75002 -0.25001,1.37502 -0.75,1.875 -0.50001,0.50002 -1.12501,0.75002 -1.875,0.75 -0.75001,2e-5 -1.37501,-0.24998 -1.875,-0.75 -0.50001,-0.49998 -0.75001,-1.12498 -0.75,-1.875 -10e-6,-0.74998 0.24999,-1.37498 0.75,-1.875 0.49999,-0.49998 1.12499,-0.74998 1.875,-0.75 0.74999,2e-5 1.37499,0.25002 1.875,0.75 0.49999,0.50002 0.74999,1.12502 0.75,1.875 z m 0,17.625 c -10e-6,0.75 -0.25001,1.375 -0.75,1.875 -0.50001,0.5 -1.12501,0.75 -1.875,0.75 -0.75001,0 -1.37501,-0.25 -1.875,-0.75 -0.50001,-0.5 -0.75001,-1.125 -0.75,-1.875 -10e-6,-0.75 0.24999,-1.375 0.75,-1.875 0.49999,-0.5 1.12499,-0.75 1.875,-0.75 0.74999,0 1.37499,0.25 1.875,0.75 0.49999,0.5 0.74999,1.125 0.75,1.875 z"
         style="font-size:48px;font-variant:normal;font-stretch:normal;font-family:NSimSun;-inkscape-font-specification:NSimSun"
         id="path3116"
         inkscape:connector-curvature="0" />
      <path
         d="m 306.84375,357.29923 c -1.75001,3e-5 -3.21876,1.34378 -4.40625,4.03125 -1.18751,2.68752 -1.78126,6.28127 -1.78125,10.78125 -10e-6,4.75001 0.59374,8.43751 1.78125,11.0625 1.18749,2.625 2.65624,3.9375 4.40625,3.9375 1.87499,0 3.34373,-1.3125 4.40625,-3.9375 1.06248,-2.62499 1.59373,-6.31249 1.59375,-11.0625 -2e-5,-4.49998 -0.50002,-8.09373 -1.5,-10.78125 -1.00002,-2.68747 -2.50001,-4.03122 -4.5,-4.03125 z m 0,31.3125 c -2.75001,0 -5.06251,-1.4375 -6.9375,-4.3125 -1.875,-2.87499 -2.8125,-6.93749 -2.8125,-12.1875 0,-4.87498 0.90625,-8.81247 2.71875,-11.8125 1.81249,-2.99997 4.15624,-4.49997 7.03125,-4.5 2.74999,3e-5 5.03123,1.43753 6.84375,4.3125 1.81248,2.87503 2.71873,6.87502 2.71875,12 -2e-5,5.12501 -0.90627,9.15626 -2.71875,12.09375 -1.81252,2.9375 -4.09376,4.40625 -6.84375,4.40625 z"
         style="font-size:48px;font-variant:normal;font-stretch:normal;font-family:NSimSun;-inkscape-font-specification:NSimSun"
         id="path3118"
         inkscape:connector-curvature="0" />
      <path
         d="m 330.84375,357.29923 c -1.75001,3e-5 -3.21876,1.34378 -4.40625,4.03125 -1.18751,2.68752 -1.78126,6.28127 -1.78125,10.78125 -10e-6,4.75001 0.59374,8.43751 1.78125,11.0625 1.18749,2.625 2.65624,3.9375 4.40625,3.9375 1.87499,0 3.34373,-1.3125 4.40625,-3.9375 1.06248,-2.62499 1.59373,-6.31249 1.59375,-11.0625 -2e-5,-4.49998 -0.50002,-8.09373 -1.5,-10.78125 -1.00002,-2.68747 -2.50001,-4.03122 -4.5,-4.03125 z m 0,31.3125 c -2.75001,0 -5.06251,-1.4375 -6.9375,-4.3125 -1.875,-2.87499 -2.8125,-6.93749 -2.8125,-12.1875 0,-4.87498 0.90625,-8.81247 2.71875,-11.8125 1.81249,-2.99997 4.15624,-4.49997 7.03125,-4.5 2.74999,3e-5 5.03123,1.43753 6.84375,4.3125 1.81248,2.87503 2.71873,6.87502 2.71875,12 -2e-5,5.12501 -0.90627,9.15626 -2.71875,12.09375 -1.81252,2.9375 -4.09376,4.40625 -6.84375,4.40625 z"
         style="font-size:48px;font-variant:normal;font-stretch:normal;font-family:NSimSun;-inkscape-font-specification:NSimSun"
         id="path3120"
         inkscape:connector-curvature="0" />
    </g>
    <g
       transform="matrix(1.2986974,0,0,1.593692,-162.53723,-179.21468)"
       style="font-size:40px;font-style:normal;font-weight:normal;line-height:125%;letter-spacing:0px;word-spacing:0px;fill:#000000;fill-opacity:1;stroke:none;font-family:Sans"
       id="flowRoot3003">
      <path
         d="m 355.09375,383.02098 c 2.77082,2e-5 5.03123,1.05731 6.78125,3.17187 1.74998,2.1146 2.62498,4.92189 2.625,8.42188 -2e-5,3.93751 -0.91148,7.07292 -2.73438,9.40625 -1.82293,2.33333 -4.63022,3.5 -8.42187,3.5 -2.62501,0 -4.95834,-0.76563 -7,-2.29688 -2.04167,-1.53124 -3.0625,-3.39062 -3.0625,-5.57812 0,-0.87499 0.2552,-1.64062 0.76562,-2.29688 0.51042,-0.65624 1.20312,-0.98436 2.07813,-0.98437 0.87499,10e-6 1.45833,0.29167 1.75,0.875 0.29166,0.58334 0.43749,1.09376 0.4375,1.53125 -10e-6,0.875 -0.21876,1.53125 -0.65625,1.96875 -0.43751,0.58334 -0.65626,1.16667 -0.65625,1.75 -10e-6,1.16667 0.6927,2.04167 2.07812,2.625 1.38541,0.58333 2.8802,0.875 4.48438,0.875 2.33332,0 4.11977,-0.94792 5.35937,-2.84375 1.23957,-1.89583 1.85936,-4.59374 1.85938,-8.09375 -2e-5,-2.91665 -0.5469,-5.28644 -1.64063,-7.10938 -1.09376,-1.82289 -2.73439,-2.73435 -4.92187,-2.73437 -1.60418,2e-5 -2.98959,0.29169 -4.15625,0.875 -1.16668,0.58335 -2.26042,1.82293 -3.28125,3.71875 l -1.96875,-0.21875 1.09375,-19.90625 17.9375,0 -0.65625,3.28125 -15.75,0 -0.875,14.4375 c 1.45833,-2.04165 2.8802,-3.28123 4.26562,-3.71875 1.38541,-0.43748 2.80728,-0.65623 4.26563,-0.65625 z"
         style="font-size:56px;font-variant:normal;font-stretch:normal;font-family:NSimSun;-inkscape-font-specification:NSimSun"
         id="path3103"
         inkscape:connector-curvature="0" />
      <path
         d="m 384.625,384.11473 c -2e-5,0.87502 -0.29168,1.60418 -0.875,2.1875 -0.58335,0.58335 -1.31251,0.87502 -2.1875,0.875 -0.87501,2e-5 -1.60418,-0.29165 -2.1875,-0.875 -0.58334,-0.58332 -0.87501,-1.31248 -0.875,-2.1875 -10e-6,-0.87498 0.29166,-1.60415 0.875,-2.1875 0.58332,-0.58331 1.31249,-0.87498 2.1875,-0.875 0.87499,2e-5 1.60415,0.29169 2.1875,0.875 0.58332,0.58335 0.87498,1.31252 0.875,2.1875 z m 0,20.5625 c -2e-5,0.875 -0.29168,1.60416 -0.875,2.1875 -0.58335,0.58333 -1.31251,0.875 -2.1875,0.875 -0.87501,0 -1.60418,-0.29167 -2.1875,-0.875 -0.58334,-0.58334 -0.87501,-1.3125 -0.875,-2.1875 -10e-6,-0.875 0.29166,-1.60417 0.875,-2.1875 0.58332,-0.58333 1.31249,-0.875 2.1875,-0.875 0.87499,0 1.60415,0.29167 2.1875,0.875 0.58332,0.58333 0.87498,1.3125 0.875,2.1875 z"
         style="font-size:56px;font-variant:normal;font-stretch:normal;font-family:NSimSun;-inkscape-font-specification:NSimSun"
         id="path3105"
         inkscape:connector-curvature="0" />
      <path
         d="m 416.34375,378.86473 c -2e-5,-2.62497 -0.58335,-4.63018 -1.75,-6.01563 -1.16668,-1.38538 -2.91668,-2.07809 -5.25,-2.07812 -1.75001,3e-5 -3.2448,0.47399 -4.48438,1.42187 -1.23959,0.94795 -1.85938,2.15108 -1.85937,3.60938 -10e-6,0.87503 0.29166,1.60419 0.875,2.1875 0.43749,0.58336 0.65624,1.16669 0.65625,1.75 -10e-6,0.72919 -0.1823,1.27606 -0.54688,1.64062 -0.36459,0.36461 -0.91146,0.5469 -1.64062,0.54688 -0.87501,2e-5 -1.56771,-0.25519 -2.07813,-0.76563 -0.51042,-0.51039 -0.76562,-1.34893 -0.76562,-2.51562 0,-3.06247 1.09375,-5.3958 3.28125,-7 2.18749,-1.60413 4.52082,-2.40622 7,-2.40625 3.49998,3e-5 6.08852,0.87503 7.76562,2.625 1.67707,1.75003 2.51561,3.93753 2.51563,6.5625 -2e-5,1.75002 -0.40107,3.50002 -1.20313,5.25 -0.8021,1.75002 -2.07814,3.4271 -3.82812,5.03125 -4.22918,4.08334 -7.47397,7.40105 -9.73438,9.95312 -2.26042,2.55209 -3.60938,4.26563 -4.04687,5.14063 l 12.90625,0 c 1.31248,0 2.40623,-0.51042 3.28125,-1.53125 0.87498,-1.02083 1.45831,-2.55208 1.75,-4.59375 l 1.3125,0 -1.3125,9.40625 -20.34375,0 0,-2.84375 c 0.72916,-1.3125 1.93229,-2.98958 3.60937,-5.03125 1.67708,-2.04166 3.90104,-4.44791 6.67188,-7.21875 2.47915,-2.47915 4.30207,-4.81248 5.46875,-7 1.16665,-2.18748 1.74998,-4.22914 1.75,-6.125 z"
         style="font-size:56px;font-variant:normal;font-stretch:normal;font-family:NSimSun;-inkscape-font-specification:NSimSun"
         id="path3107"
         inkscape:connector-curvature="0" />
      <path
         d="m 448.5,397.02098 c -2e-5,2.77084 -1.02086,5.21354 -3.0625,7.32812 -2.04169,2.11459 -4.88543,3.17188 -8.53125,3.17188 -2.62501,0 -4.88542,-0.72917 -6.78125,-2.1875 -1.89584,-1.45833 -2.84375,-3.13541 -2.84375,-5.03125 0,-0.875 0.29166,-1.64062 0.875,-2.29688 0.58333,-0.65624 1.16666,-0.98436 1.75,-0.98437 0.87499,10e-6 1.49478,0.32813 1.85937,0.98437 0.36458,0.65626 0.54687,1.20313 0.54688,1.64063 -10e-6,0.72917 -0.14584,1.3125 -0.4375,1.75 -0.29167,0.58334 -0.43751,1.09375 -0.4375,1.53125 -10e-6,0.875 0.54687,1.60417 1.64062,2.1875 1.09374,0.58333 2.29687,0.875 3.60938,0.875 2.62498,0 4.59373,-0.76563 5.90625,-2.29688 1.31248,-1.53124 1.96873,-3.90103 1.96875,-7.10937 -2e-5,-2.62499 -0.69273,-4.73957 -2.07813,-6.34375 -1.38543,-1.60415 -3.97397,-2.40623 -7.76562,-2.40625 l 0,-1.53125 c 2.91665,2e-5 5.06769,-0.69269 6.45312,-2.07813 1.3854,-1.38539 2.07811,-3.31768 2.07813,-5.79687 -2e-5,-2.04164 -0.54689,-3.8281 -1.64063,-5.35938 -1.09376,-1.53121 -2.8073,-2.29684 -5.14062,-2.29687 -1.02084,3e-5 -2.11459,0.25524 -3.28125,0.76562 -1.16667,0.51045 -1.75001,1.34899 -1.75,2.51563 -10e-6,1.1667 0.14583,1.89586 0.4375,2.1875 0.29166,0.29169 0.43749,0.65628 0.4375,1.09375 -10e-6,0.72919 -0.14584,1.31253 -0.4375,1.75 -0.29167,0.43752 -0.80209,0.65627 -1.53125,0.65625 -0.58334,2e-5 -1.13021,-0.21873 -1.64063,-0.65625 -0.51042,-0.43747 -0.76562,-1.23956 -0.76562,-2.40625 0,-2.18747 0.94791,-3.97393 2.84375,-5.35938 1.89582,-1.38538 4.08332,-2.07809 6.5625,-2.07812 2.91665,3e-5 5.24998,0.91149 7,2.73437 1.74998,1.82295 2.62498,3.75524 2.625,5.79688 -2e-5,2.18752 -0.5469,4.0469 -1.64063,5.57812 -1.09377,1.53127 -2.80731,2.66148 -5.14062,3.39063 3.20831,1.16668 5.39581,2.69793 6.5625,4.59375 1.16664,1.89584 1.74998,3.79168 1.75,5.6875 z"
         style="font-size:56px;font-variant:normal;font-stretch:normal;font-family:NSimSun;-inkscape-font-specification:NSimSun"
         id="path3109"
         inkscape:connector-curvature="0" />
    </g>
    <g
       transform="matrix(2.6673904,0,0,2.386387,-543.13505,-617.74199)"
       style="font-size:40px;font-style:normal;font-weight:normal;line-height:125%;letter-spacing:0px;word-spacing:0px;fill:#000000;fill-opacity:1;stroke:none;font-family:Sans"
       id="flowRoot3011">
      <path
         d="m 411.78125,487.42723 c -2e-5,-2.62497 -0.58335,-4.63018 -1.75,-6.01563 -1.16668,-1.38538 -2.91668,-2.07809 -5.25,-2.07812 -1.75001,3e-5 -3.2448,0.47399 -4.48438,1.42187 -1.23959,0.94795 -1.85938,2.15108 -1.85937,3.60938 -10e-6,0.87503 0.29166,1.60419 0.875,2.1875 0.43749,0.58336 0.65624,1.16669 0.65625,1.75 -10e-6,0.72919 -0.1823,1.27606 -0.54688,1.64062 -0.36459,0.36461 -0.91146,0.5469 -1.64062,0.54688 -0.87501,2e-5 -1.56771,-0.25519 -2.07813,-0.76563 -0.51042,-0.51039 -0.76562,-1.34893 -0.76562,-2.51562 0,-3.06247 1.09375,-5.3958 3.28125,-7 2.18749,-1.60413 4.52082,-2.40622 7,-2.40625 3.49998,3e-5 6.08852,0.87503 7.76562,2.625 1.67707,1.75003 2.51561,3.93753 2.51563,6.5625 -2e-5,1.75002 -0.40107,3.50002 -1.20313,5.25 -0.8021,1.75002 -2.07814,3.4271 -3.82812,5.03125 -4.22918,4.08334 -7.47397,7.40105 -9.73438,9.95312 -2.26042,2.55209 -3.60938,4.26563 -4.04687,5.14063 l 12.90625,0 c 1.31248,0 2.40623,-0.51042 3.28125,-1.53125 0.87498,-1.02083 1.45831,-2.55208 1.75,-4.59375 l 1.3125,0 -1.3125,9.40625 -20.34375,0 0,-2.84375 c 0.72916,-1.3125 1.93229,-2.98958 3.60937,-5.03125 1.67708,-2.04166 3.90104,-4.44791 6.67188,-7.21875 2.47915,-2.47915 4.30207,-4.81248 5.46875,-7 1.16665,-2.18748 1.74998,-4.22914 1.75,-6.125 z"
         style="font-size:56px;font-variant:normal;font-stretch:normal;font-family:NSimSun;-inkscape-font-specification:NSimSun"
         id="path3098"
         inkscape:connector-curvature="0" />
      <path
         d="m 421.1875,515.64598 0,-1.3125 1.09375,0 c 0.72916,0 1.23958,-0.14583 1.53125,-0.4375 0.29166,-0.29167 0.4375,-0.72917 0.4375,-1.3125 l 0,-31.28125 c 0,-0.5833 -0.14584,-1.0208 -0.4375,-1.3125 -0.29167,-0.29163 -0.80209,-0.43747 -1.53125,-0.4375 l -1.3125,0 0,-1.3125 2.40625,0 c 0.58333,3e-5 1.16666,-0.1458 1.75,-0.4375 0.58333,-0.29163 1.16666,-0.72913 1.75,-1.3125 l 0.4375,0 0,18.59375 c 1.31249,-1.60415 2.66145,-2.73435 4.04687,-3.39063 1.38541,-0.65622 2.8802,-0.98435 4.48438,-0.98437 2.18748,2e-5 3.86456,0.61981 5.03125,1.85937 1.16664,1.23961 1.74998,3.1719 1.75,5.79688 l 0,14.21875 c -2e-5,0.58333 0.18227,1.02083 0.54687,1.3125 0.36456,0.29167 0.83852,0.4375 1.42188,0.4375 l 1.09375,0 0,1.3125 -9.1875,0 0,-1.3125 1.09375,0 c 0.72915,0 1.23956,-0.14583 1.53125,-0.4375 0.29165,-0.29167 0.43748,-0.72917 0.4375,-1.3125 l 0,-13.78125 c -2e-5,-2.47915 -0.40106,-4.11977 -1.20313,-4.92188 -0.8021,-0.80206 -1.85939,-1.2031 -3.17187,-1.20312 -1.16668,2e-5 -2.44272,0.3646 -3.82813,1.09375 -1.38542,0.72918 -2.73438,1.96877 -4.04687,3.71875 l 0,15.09375 c -10e-6,0.58333 0.18228,1.02083 0.54687,1.3125 0.36458,0.29167 0.83854,0.4375 1.42188,0.4375 l 1.09375,0 0,1.3125 z"
         style="font-size:56px;font-variant:normal;font-stretch:normal;font-family:NSimSun;-inkscape-font-specification:NSimSun"
         id="path3100"
         inkscape:connector-curvature="0" />
    </g>
    <g
       id="g3025"
       transform="matrix(0.42355471,-0.36605506,0.34834559,0.44508772,-131.00304,298.58583)"
       style="fill:#008000;stroke:none">
      <rect
         y="843.79077"
         x="128.57143"
         height="28.57143"
         width="394.28571"
         id="rect3019"
         style="fill:#008000;fill-opacity:1;stroke:none" />
      <path
         inkscape:connector-curvature="0"
         id="path3023"
         d="M 522.85714,872.36218 520,943.79075 l 100,-80 -100,-88.57142 z"
         style="fill:#008000;stroke:none" />
    </g>
  </g>
</svg>
